# xmcd
#
# Track frame offsets: 
#        150
#        15195
#        30402
#        44307
#        57562
#        71897
#        85397
#        98660
#        113787
#        126885
#        141275
#        155220
#        168242
#        182305
#        197167
#        211095
#        226847
#        241305
#        254350
#        267987
#        282567
#        296740
#        310277
#
# Disc length: 4310 seconds
#
# Revision: 2
# Processed by: cddbd v1.5.2PL0 Copyright (c) Steve Scherf et al.
# Submitted via: ExactAudioCopyFreeDBPlugin 1.0
#
DISCID=4d10d417
DTITLE=Various Artist - Juke Joint Saturday Night Piano Blues, Rags &
DTITLE=Stomps
DYEAR=2000
DGENRE=Blues
TTITLE0=Jabo Williams - Pratt City Blues
TTITLE1=Jabo Williams - Jab's Blues
TTITLE2=Louise Johnson - On The Wall
TTITLE3=Skip James - If You Haven't Any Hay Get On Down The Road
TTITLE4=Charley Taylor - Heavy Suitcase Blues
TTITLE5=Little Brother Montgomery - Vicksburg Blues
TTITLE6=Little Brother Montgomery - No Special Rider Blues
TTITLE7=Jabo Williams - Polock Blues
TTITLE8=Louise Johnson - By The Moon and The Stars
TTITLE9=Charley Taylor - Louisiana Bound
TTITLE10=James Wiggins - Gotta Shave 'Em Dry
TTITLE11=Skip James - 22-20 Blues
TTITLE12=James Wiggins - Fourty Four Blues
TTITLE13=Jabo Williams - Fat Mama Blues
TTITLE14="Boodle It" Wiggins - Evil Woman Blues
TTITLE15=Louise Johnson - Long Ways From Home
TTITLE16=Louise Johsnon - All Night Long Blues
TTITLE17=Rudy Foster - Black Gal Makes Me Thunder
TTITLE18=Rudy Foster - Corn Trimmer Blues
TTITLE19=Kingfish Bill Tomlin - Army Blues
TTITLE20=Kingfish Bill Tomlin - Hot Box
TTITLE21=Roosevelt Sykes - 3-6 and 9
TTITLE22=Piano Kid Edwards - Gamblin' Man's Prayer
EXTD=
EXTT0=
EXTT1=
EXTT2=
EXTT3=
EXTT4=
EXTT5=
EXTT6=
EXTT7=
EXTT8=
EXTT9=
EXTT10=
EXTT11=
EXTT12=
EXTT13=
EXTT14=
EXTT15=
EXTT16=
EXTT17=
EXTT18=
EXTT19=
EXTT20=
EXTT21=
EXTT22=
PLAYORDER=
